<?xml version="1.0" encoding="utf-8"?>
<!-- Generator: Adobe Illustrator 27.0.0, SVG Export Plug-In . SVG Version: 6.00 Build 0)  -->
<svg version="1.1" id="Layer_1" xmlns="http://www.w3.org/2000/svg" xmlns:xlink="http://www.w3.org/1999/xlink" x="0px" y="0px"
	 viewBox="0 0 288.51 418.54" style="enable-background:new 0 0 288.51 418.54;" xml:space="preserve">
<style type="text/css">
	.st0{fill:url(#SVGID_1_);}
	.st1{fill:url(#SVGID_00000010302776564426732510000010487110355217050007_);}
	.st2{fill:#7F7F7F;}
	.st3{fill:#050560;}
	.st4{fill:#08087F;}
	.st5{fill:#060623;}
	.st6{fill:url(#SVGID_00000173864441941468635200000004856263030335511484_);}
	.st7{fill:url(#SVGID_00000149351199406539226940000015870942455675485592_);}
	.st8{fill:#FFFFFF;}
	.st9{font-family:'Montserrat-Arabic-Medium';}
	.st10{font-size:30.3143px;}
	.st11{font-size:9.2021px;}
</style>
<g>
	<g>
		<linearGradient id="SVGID_1_" gradientUnits="userSpaceOnUse" x1="141.6339" y1="305.2817" x2="141.6339" y2="79.2008">
			<stop  offset="0.2362" style="stop-color:#FFFFFF"/>
			<stop  offset="0.5" style="stop-color:#7F7F7F"/>
			<stop  offset="1" style="stop-color:#08087F"/>
		</linearGradient>
		<polygon class="st0" points="196.31,93.01 196.31,162.67 181.71,153.27 181.63,102.96 161.33,116.72 161.27,164.37 195.92,186.98 
			195.92,251.66 137.84,280.34 87.29,251.66 87.29,176.78 66.58,163.51 66.58,263.65 137.84,305.28 216.69,263.65 216.69,79.2 		"/>
		
			<linearGradient id="SVGID_00000114071617557951210000000008684374666408283025_" gradientUnits="userSpaceOnUse" x1="124.1569" y1="264.0587" x2="124.1569" y2="79.2">
			<stop  offset="0.2362" style="stop-color:#FFFFFF"/>
			<stop  offset="0.5" style="stop-color:#7F7F7F"/>
			<stop  offset="1" style="stop-color:#08087F"/>
		</linearGradient>
		<polygon style="fill:url(#SVGID_00000114071617557951210000000008684374666408283025_);" points="160.57,229.71 139.1,240.85 
			122.67,232.54 122.67,198.93 101.85,185.78 101.85,244.47 138.48,264.06 181.38,242.09 181.38,199.25 87.83,134.94 87.83,116.38 
			146.31,154.59 146.4,130.73 146.38,130.71 146.38,104.59 151.02,104.59 146.38,96.54 144.16,92.7 136.36,79.2 128.41,92.98 
			126,97.16 121.71,104.59 126,104.59 126,117.5 66.94,79.2 66.94,146.23 160.57,210.55 		"/>
	</g>
	<g>
		<text transform="matrix(1 0 0 1 66.606 344.9713)" class="st8 st9 st10">SAMMLY</text>
		<text transform="matrix(1 0 0 1 66.2847 363.1089)" class="st2 st9 st11">Swift | strategic | savvy</text>
	</g>
</g>
</svg>
